<?xml version="1.0" standalone="no"?>
<!DOCTYPE svg PUBLIC "-//W3C//DTD SVG 20010904//EN"
 "http://www.w3.org/TR/2001/REC-SVG-20010904/DTD/svg10.dtd">
<svg version="1.0" xmlns="http://www.w3.org/2000/svg"
 width="556.000000pt" height="556.000000pt" viewBox="0 0 556.000000 556.000000"
 preserveAspectRatio="xMidYMid meet">
<metadata>
Created by potrace 1.14, written by Peter Selinger 2001-2017
</metadata>
<g transform="translate(0.000000,556.000000) scale(0.100000,-0.100000)"
fill="#000000" stroke="none">
<path d="M3490 5339 c-30 -4 -80 -10 -110 -13 -79 -9 -110 -14 -150 -22 -19
-4 -42 -8 -50 -10 -8 -2 -31 -6 -50 -10 -19 -4 -39 -6 -44 -5 -4 1 -14 -4 -22
-10 -8 -6 -14 -9 -14 -6 0 3 -21 -1 -47 -9 -27 -8 -60 -17 -74 -19 -30 -4
-329 -104 -344 -115 -5 -3 -32 -15 -60 -25 -73 -26 -321 -146 -439 -212 -102
-57 -397 -248 -444 -287 -14 -11 -39 -34 -56 -50 -26 -24 -22 -22 22 8 28 20
56 36 61 36 5 0 11 4 13 8 3 8 153 93 223 126 22 10 43 24 47 30 4 6 8 8 8 3
0 -4 11 0 24 8 19 13 25 13 29 3 4 -9 6 -9 6 2 1 8 13 20 29 27 82 35 105 42
115 36 6 -3 7 -1 3 5 -7 11 6 17 28 13 5 -1 12 2 15 6 15 20 49 31 60 20 6 -6
11 -7 11 -1 0 5 5 2 11 -6 9 -13 10 -13 6 0 -2 8 -10 14 -16 12 -7 -1 -9 2 -6
8 4 6 13 9 21 6 7 -3 16 -1 19 3 8 14 46 21 39 8 -3 -7 1 -4 9 6 9 11 21 15
32 10 13 -4 16 -3 11 5 -5 8 2 10 22 6 16 -3 32 -1 36 4 4 6 -3 8 -16 5 -13
-3 -21 -3 -18 0 3 3 18 8 33 11 15 2 36 8 47 11 15 5 18 3 14 -8 -3 -8 -1 -18
5 -22 7 -4 8 0 4 11 -4 12 -3 15 5 10 7 -4 10 -2 6 7 -2 7 1 14 8 15 7 0 23 3
36 6 24 6 41 10 87 21 23 5 26 4 15 -4 -9 -7 -11 -11 -3 -11 7 0 16 7 21 16 8
15 11 15 30 -4 11 -11 17 -24 14 -28 -4 -4 -1 -4 7 1 12 7 11 10 -4 21 -21 16
-14 27 19 31 17 3 23 -1 22 -13 0 -9 7 -18 17 -19 9 -2 17 1 17 7 0 6 -7 7
-16 4 -12 -5 -15 -2 -10 10 3 8 6 18 6 21 0 4 10 -2 22 -13 16 -13 19 -14 10
-2 -9 11 -10 18 -2 23 5 3 10 1 10 -5 0 -7 7 -9 15 -6 8 3 21 8 28 11 8 3 19
-4 25 -17 l12 -23 -6 23 c-4 18 -1 22 18 22 18 0 20 -2 8 -10 -12 -7 -10 -9 7
-8 14 2 19 7 15 18 -5 13 -4 13 13 0 14 -11 17 -12 11 -1 -6 9 -5 12 5 9 8 -3
13 -14 11 -24 -2 -15 -1 -16 7 -5 5 8 7 21 4 30 -3 10 -2 12 4 6 7 -9 28 -12
36 -5 8 7 107 6 107 -2 0 -5 6 -6 13 -1 20 12 47 14 47 2 0 -8 5 -8 15 1 11
10 18 10 29 1 11 -9 15 -9 18 1 4 10 8 10 19 1 9 -7 20 -8 28 -4 16 10 51 3
51 -11 0 -5 -4 -6 -10 -3 -6 4 -7 -1 -3 -11 4 -11 8 -13 11 -6 2 7 8 10 13 7
5 -4 6 1 2 11 -5 13 -3 15 13 7 10 -6 25 -8 32 -6 6 3 12 -3 13 -14 0 -15 1
-16 7 -2 4 9 14 15 22 13 90 -15 153 -30 180 -41 19 -8 27 -10 41 -12 5 0 7
-7 3 -13 -5 -10 -4 -10 6 -1 10 9 20 9 47 -2 18 -8 33 -11 33 -8 0 3 9 -2 21
-13 12 -10 22 -18 23 -16 1 4 22 -3 74 -24 28 -11 32 -17 27 -36 -7 -23 -7
-23 9 -3 10 13 18 16 23 9 5 -5 23 -16 41 -23 19 -8 31 -19 28 -26 -3 -9 2
-11 16 -7 14 3 19 1 14 -6 -5 -8 0 -12 13 -12 23 0 27 -10 10 -27 -8 -8 -7
-13 3 -18 7 -5 10 -5 6 0 -4 4 -3 14 3 21 8 10 17 6 40 -18 16 -17 29 -28 29
-25 0 4 9 -1 20 -10 11 -10 20 -22 20 -28 0 -5 -5 -3 -11 5 -9 13 -10 13 -6 0
2 -8 10 -15 18 -15 18 0 51 -30 42 -39 -4 -3 0 -6 8 -6 24 0 49 -36 36 -50 -9
-9 -8 -11 3 -8 16 3 60 -35 60 -52 0 -5 5 -10 10 -10 6 0 10 -7 10 -15 0 -8
-5 -15 -12 -15 -6 0 -8 -3 -5 -6 4 -4 13 -1 22 6 13 10 15 9 15 -8 0 -12 8
-29 18 -39 18 -17 37 -56 30 -59 -2 -1 4 -10 13 -20 18 -21 45 -85 41 -96 -1
-5 3 -8 10 -8 6 0 3 -10 -8 -22 -10 -13 -12 -17 -4 -10 8 6 17 12 20 12 11 0
8 -34 -4 -50 -9 -13 -9 -13 6 -2 13 10 17 10 21 0 2 -7 0 -21 -5 -31 -6 -12
-5 -17 4 -15 8 2 13 -8 13 -29 0 -17 2 -31 5 -31 17 1 19 -5 9 -24 -6 -13 -8
-19 -3 -15 14 14 34 -95 21 -112 -9 -12 -9 -13 1 -7 8 5 12 0 13 -16 1 -13 2
-41 3 -63 1 -22 -3 -46 -8 -54 -8 -11 -8 -13 1 -8 8 5 11 -13 12 -63 0 -53 -3
-69 -12 -64 -9 6 -9 5 0 -7 10 -12 10 -18 0 -29 -9 -10 -9 -11 1 -6 9 6 11 1
7 -16 -3 -12 -7 -36 -9 -53 -2 -16 -7 -57 -11 -89 -7 -52 -6 -58 9 -53 9 4 16
3 16 -1 0 -5 15 -6 34 -4 27 3 35 0 39 -15 4 -14 5 -14 6 -2 1 21 60 24 68 3
5 -13 7 -13 14 -2 9 15 59 21 59 7 0 -5 5 -9 11 -9 5 0 8 4 5 9 -9 14 86 11
103 -2 11 -9 13 -9 8 -1 -5 9 19 12 88 12 57 1 93 -3 90 -9 -4 -5 -2 -9 4 -9
5 0 11 6 14 13 3 9 9 9 27 -1 12 -8 19 -9 16 -4 -4 6 27 10 80 10 76 0 85 -1
80 -16 -5 -15 -4 -15 8 1 7 10 27 17 45 17 23 0 31 5 32 18 1 48 12 109 23
121 6 8 7 12 1 9 -7 -4 -10 59 -9 180 1 103 -3 201 -7 217 -5 17 -11 50 -15
75 -10 80 -12 95 -15 100 -1 3 -3 10 -4 15 -2 6 -4 12 -5 15 -2 5 -8 29 -13
53 -1 6 -6 18 -10 25 -5 6 -5 12 -1 12 3 0 1 7 -6 15 -7 8 -9 15 -5 15 4 0 2
7 -5 15 -6 8 -9 19 -5 25 3 5 2 10 -3 10 -5 0 -9 6 -9 13 -1 21 -124 269 -143
287 -3 3 -23 29 -44 59 -97 136 -230 262 -412 389 -75 52 -394 194 -394 175 0
-3 -7 0 -15 7 -8 7 -15 10 -15 6 0 -3 -16 0 -35 8 -19 8 -35 13 -35 11 0 -2
-15 1 -32 6 -18 6 -51 12 -72 15 -22 3 -43 7 -46 9 -7 4 -58 12 -170 24 -89
10 -382 10 -460 0z"/>
<path d="M3106 5048 c3 -4 11 -5 19 -1 21 7 19 12 -4 10 -11 0 -18 -5 -15 -9z"/>
<path d="M3210 5051 c0 -7 -5 -9 -12 -5 -7 5 -8 3 -3 -5 5 -9 10 -10 18 -2 6
6 8 14 4 18 -4 3 -7 1 -7 -6z"/>
<path d="M3296 5045 c-3 -8 -1 -15 4 -15 6 0 10 7 10 15 0 8 -2 15 -4 15 -2 0
-6 -7 -10 -15z"/>
<path d="M3340 5045 c-7 -9 -8 -15 -2 -15 5 0 12 7 16 15 3 8 4 15 2 15 -2 0
-9 -7 -16 -15z"/>
<path d="M3073 5043 c4 -3 2 -12 -5 -20 -8 -11 -7 -12 6 -7 18 7 22 34 4 34
-6 0 -8 -3 -5 -7z"/>
<path d="M3150 5040 c0 -5 7 -10 16 -10 9 0 12 -5 8 -12 -4 -7 -3 -8 4 -4 16
10 15 14 -8 26 -14 7 -20 7 -20 0z"/>
<path d="M3250 5042 c0 -5 7 -9 15 -9 8 0 12 4 9 9 -3 4 -9 8 -15 8 -5 0 -9
-4 -9 -8z"/>
<path d="M3035 5030 c-3 -5 -1 -10 4 -10 6 0 11 5 11 10 0 6 -2 10 -4 10 -3 0
-8 -4 -11 -10z"/>
<path d="M3485 5029 c-4 -6 -5 -12 -2 -15 2 -3 7 2 10 11 7 17 1 20 -8 4z"/>
<path d="M2895 5021 c6 -10 2 -12 -16 -6 -27 8 -24 3 8 -14 17 -9 21 -8 19 4
-1 8 -6 18 -11 22 -4 4 -5 2 0 -6z"/>
<path d="M3220 5020 c-9 -6 -10 -10 -3 -10 6 0 15 5 18 10 8 12 4 12 -15 0z"/>
<path d="M3506 5021 c-3 -4 14 -7 36 -8 22 -1 38 0 36 3 -8 7 -68 12 -72 5z"/>
<path d="M3590 5001 c0 -5 8 -15 18 -22 15 -12 16 -12 5 2 -7 9 -10 19 -6 22
3 4 1 7 -5 7 -7 0 -12 -4 -12 -9z"/>
<path d="M2616 4975 c-4 -11 -13 -14 -28 -10 -21 5 -21 5 -4 -6 14 -9 21 -8
34 5 9 8 13 18 10 21 -3 3 -8 -1 -12 -10z"/>
<path d="M3635 4980 c-3 -5 -1 -10 4 -10 6 0 11 5 11 10 0 6 -2 10 -4 10 -3 0
-8 -4 -11 -10z"/>
<path d="M3038 4975 c-2 -3 -51 -6 -109 -7 -57 -2 -107 -7 -111 -13 -5 -6 -8
-5 -8 4 0 9 -4 10 -12 4 -7 -6 -20 -11 -28 -11 -56 -3 -90 -9 -96 -15 -4 -4
-17 1 -28 10 -20 17 -20 17 -7 1 12 -16 11 -18 -12 -18 -14 0 -52 -7 -84 -16
-32 -8 -67 -17 -79 -18 -11 -2 -26 -6 -32 -10 -18 -11 -38 4 -21 15 10 6 8 8
-8 6 -12 -2 -26 -7 -30 -11 -5 -4 -3 -6 4 -4 20 6 15 -16 -6 -24 -15 -5 -21
-3 -21 7 0 7 -4 16 -8 19 -5 3 -8 -4 -8 -15 1 -15 -10 -24 -39 -35 -47 -16
-48 -16 -41 -6 7 11 -31 8 -41 -3 -5 -4 -3 -5 4 -1 6 3 15 1 19 -5 5 -8 -1
-10 -19 -7 -15 3 -24 2 -22 -3 3 -4 -5 -11 -17 -15 -26 -8 -34 -6 -31 7 4 14
-3 11 -18 -8 -12 -14 -12 -16 0 -8 10 6 12 4 6 -4 -4 -7 -15 -11 -25 -8 -11 3
-21 -2 -24 -10 -4 -9 -14 -13 -26 -10 -11 3 -18 1 -15 -3 5 -7 -47 -33 -70
-34 -5 -1 -15 -8 -22 -16 -7 -8 -13 -11 -13 -6 0 5 -9 1 -20 -9 -10 -9 -26
-15 -34 -12 -8 3 -17 0 -19 -8 -3 -7 -34 -27 -69 -44 -35 -18 -72 -37 -83 -44
-389 -233 -720 -515 -975 -832 -35 -44 -67 -82 -70 -85 -3 -3 -9 -12 -15 -21
-5 -9 -43 -64 -82 -122 -40 -59 -73 -111 -73 -116 0 -5 -4 -11 -8 -13 -12 -4
-133 -233 -167 -313 -10 -22 -23 -53 -30 -70 -7 -16 -16 -40 -20 -53 -3 -12
-11 -20 -16 -17 -5 3 -7 0 -4 -7 7 -18 -30 -120 -40 -110 -4 4 -5 1 -1 -6 11
-18 -3 -74 -16 -66 -6 4 -8 2 -4 -4 3 -5 -1 -39 -9 -74 -8 -35 -17 -75 -19
-89 -2 -13 -5 -24 -6 -24 -1 0 -3 -13 -5 -30 -1 -16 -3 -36 -4 -43 0 -8 -6
-10 -13 -6 -10 6 -10 5 -1 -7 7 -9 10 -26 7 -40 -3 -13 -7 -56 -7 -96 -1 -44
-6 -69 -12 -65 -5 3 -5 -1 2 -9 15 -19 13 -31 -6 -47 -13 -10 -13 -11 -1 -7
12 4 15 -8 15 -70 0 -41 4 -75 8 -75 4 0 3 -10 -4 -21 -8 -15 -8 -19 0 -15 15
10 14 -36 -1 -54 -10 -11 -9 -11 6 0 18 13 19 13 14 -1 -4 -9 -1 -22 5 -29 9
-10 9 -11 -3 -5 -13 7 -13 6 -2 -7 7 -9 14 -30 15 -47 1 -17 6 -31 11 -31 5 0
2 -8 -5 -17 -8 -9 -9 -14 -2 -10 7 4 15 -5 22 -25 13 -38 14 -48 1 -28 -7 10
-10 11 -10 2 0 -7 7 -15 16 -19 8 -3 13 -12 10 -19 -3 -8 -1 -14 5 -14 6 0 7
-4 4 -10 -3 -5 -1 -10 5 -10 6 0 8 -4 5 -10 -3 -5 -1 -10 5 -10 7 0 9 -7 6
-17 -4 -10 -4 -14 0 -10 8 8 56 -78 57 -100 0 -7 4 -13 8 -13 4 0 18 -17 30
-37 13 -21 30 -43 38 -49 9 -7 11 -16 6 -25 -5 -8 -5 -11 0 -7 9 9 35 -9 35
-24 0 -6 -8 -4 -17 3 -15 11 -14 10 1 -9 20 -24 32 -30 20 -10 -4 6 5 3 19 -8
15 -10 27 -23 27 -29 0 -5 -5 -4 -12 3 -15 15 -28 15 -28 1 0 -5 4 -8 9 -4 5
3 12 1 16 -5 4 -6 10 -8 14 -6 11 7 51 -40 43 -49 -4 -4 -2 -5 3 -4 16 5 65
-32 65 -50 0 -14 2 -14 10 -1 8 13 10 13 10 -2 0 -9 5 -20 12 -24 7 -5 8 -3 3
5 -6 10 -3 11 13 2 11 -6 22 -14 24 -18 3 -8 37 -28 103 -61 17 -9 33 -20 37
-26 5 -7 8 -7 8 -1 0 6 10 -1 23 -15 12 -14 18 -20 13 -13 -11 17 -6 16 43 -5
22 -10 38 -22 33 -27 -4 -4 0 -6 8 -3 8 3 38 -2 65 -9 28 -8 60 -16 72 -18 12
-2 27 -6 33 -10 5 -3 22 -9 37 -11 15 -3 34 -11 42 -17 12 -9 13 -9 7 0 -4 7
-2 13 3 13 6 0 11 -4 11 -10 0 -5 7 -7 15 -4 8 4 15 1 15 -5 0 -6 5 -11 11
-11 5 0 7 5 4 10 -3 6 -1 10 4 10 6 0 11 -5 11 -11 0 -8 6 -7 17 2 15 12 16
12 10 -3 -3 -10 -2 -20 4 -23 5 -4 8 -1 7 6 -2 6 3 14 11 17 10 3 11 0 5 -9
-6 -12 -5 -12 8 -1 12 10 22 11 37 3 14 -8 21 -8 24 2 3 9 8 9 18 -2 12 -12
12 -13 0 -6 -10 6 -12 4 -6 -5 6 -10 11 -9 22 5 7 11 13 14 13 9 0 -5 26 -9
58 -8 32 1 60 -3 64 -10 5 -7 8 -3 8 8 0 20 0 20 16 0 8 -10 13 -13 9 -7 -4 8
1 13 12 14 33 2 48 -2 61 -19 8 -10 12 -11 12 -3 0 7 5 9 12 5 7 -4 8 -3 4 5
-4 6 -12 9 -17 6 -5 -4 -9 -1 -9 6 0 8 12 10 41 5 22 -4 38 -3 35 2 -6 11 35
9 53 -2 10 -6 12 -6 7 2 -5 8 0 12 13 12 10 0 28 3 38 6 16 5 16 4 -1 -10 -11
-9 -16 -16 -10 -16 13 1 45 26 39 32 -3 2 2 5 10 5 8 0 15 -4 15 -9 0 -4 5 -8
11 -8 5 0 7 5 4 10 -3 6 0 10 9 10 8 0 22 3 32 7 11 4 15 3 10 -5 -3 -6 -1
-14 5 -18 7 -4 9 -3 5 4 -7 12 9 25 37 29 12 2 16 -1 12 -9 -3 -7 0 -6 6 4 11
14 15 15 38 1 21 -12 23 -13 9 0 -24 19 -23 26 2 20 11 -3 20 -1 20 5 0 6 8
11 18 10 23 0 57 8 79 20 10 6 21 10 26 11 20 2 63 15 72 21 19 14 54 18 59 6
2 -6 5 -4 5 5 1 25 31 32 47 12 9 -14 16 -15 24 -7 9 9 9 14 -1 19 -8 5 -10 4
-5 -3 4 -7 2 -12 -3 -12 -20 0 -11 28 12 35 45 14 66 15 70 3 2 -7 2 -3 0 9
-2 17 1 21 12 17 8 -4 15 -1 15 5 0 6 8 11 19 11 10 0 24 7 31 15 7 9 15 13
18 10 3 -3 11 0 18 6 8 6 21 9 29 5 9 -3 13 -2 10 3 -10 16 15 23 33 9 15 -12
16 -11 4 4 -9 11 -10 18 -2 23 5 3 10 1 10 -6 0 -6 9 -1 20 12 12 15 19 19 20
10 0 -8 8 -4 20 10 10 13 19 18 20 12 0 -7 4 -13 10 -13 5 0 6 8 3 17 -6 16
-5 17 12 3 17 -14 18 -13 12 3 -4 11 -2 17 8 17 8 0 15 3 15 8 0 10 51 32 62
26 5 -3 7 0 6 8 -2 7 5 12 14 12 10 -1 16 1 13 5 -2 4 21 23 52 42 31 19 64
41 73 51 14 12 21 13 30 5 8 -9 9 -7 4 7 -6 16 -4 18 11 12 11 -4 16 -4 13 0
-11 10 20 36 33 28 7 -4 10 -3 7 2 -3 5 0 15 8 22 8 7 14 9 14 5 0 -4 7 3 16
15 9 13 22 21 30 18 7 -3 16 0 20 6 5 7 2 8 -7 3 -12 -8 -12 -6 0 9 8 9 20 15
28 12 8 -3 12 -2 8 3 -3 5 9 21 27 35 26 20 35 23 48 13 12 -9 13 -9 3 3 -10
11 -9 17 4 32 18 20 38 24 27 6 -4 -8 -3 -10 2 -5 9 8 10 12 13 38 0 6 10 9
21 6 11 -3 17 -1 14 4 -3 5 43 58 103 117 116 115 235 242 227 242 -3 0 5 11
18 24 49 50 111 136 99 136 -5 0 -11 -4 -13 -9 -6 -16 -120 -144 -198 -221
-107 -106 -163 -156 -260 -234 -47 -37 -93 -74 -103 -82 -9 -8 -22 -14 -27
-14 -6 0 -10 -4 -10 -9 0 -10 -70 -55 -245 -160 -162 -96 -462 -228 -585 -256
-8 -2 -51 -13 -96 -24 -256 -67 -512 -83 -749 -46 -108 17 -248 63 -360 118
-222 110 -414 328 -485 552 -7 22 -17 49 -22 61 -5 11 -11 33 -12 50 -2 16 -6
36 -10 44 -3 8 -7 34 -9 57 -1 23 -6 45 -9 49 -4 4 -3 16 3 27 8 14 8 18 0 13
-13 -8 -10 21 3 43 6 9 5 12 -1 8 -14 -9 -14 104 0 122 8 10 8 12 1 8 -8 -4
-10 7 -9 36 2 23 4 42 5 42 1 0 4 14 5 30 4 41 13 95 21 125 3 14 6 33 6 43
-1 9 3 15 7 12 5 -2 7 7 5 20 -1 14 2 27 6 30 5 3 6 13 3 22 -5 12 -3 14 7 8
9 -5 11 -4 6 4 -5 7 -3 24 2 39 6 15 14 36 18 47 4 11 8 22 9 25 12 46 21 56
48 51 5 -1 6 3 2 8 -3 6 -13 7 -23 4 -14 -6 -15 -4 -5 9 7 8 10 18 6 21 -3 4
-1 7 5 7 7 0 12 9 12 21 0 16 4 20 18 14 13 -5 14 -3 5 6 -7 7 -8 18 -3 28 5
9 15 31 22 49 7 17 16 32 19 32 6 0 19 30 23 55 1 6 7 9 13 8 6 -1 9 6 6 17
-4 14 0 20 11 20 10 0 13 6 10 15 -4 10 0 15 12 15 16 0 17 2 4 10 -13 9 -7
14 12 11 4 0 4 7 1 16 -4 11 -3 14 5 9 8 -5 10 -2 6 8 -3 9 -2 16 4 16 6 0 13
14 17 30 4 17 11 28 16 24 5 -3 9 0 9 6 0 6 12 28 26 49 18 28 31 38 45 36 11
-2 17 0 14 6 -4 5 -11 6 -17 3 -6 -4 -9 -1 -6 7 3 8 12 13 21 13 9 -1 14 2 12
7 -3 4 3 12 12 18 10 6 13 11 7 11 -5 0 -16 -6 -24 -12 -7 -7 -5 -1 6 13 10
15 22 25 25 23 4 -2 9 6 12 17 3 12 10 18 16 14 6 -3 9 0 6 7 -2 7 9 28 26 47
25 27 33 31 41 20 8 -11 8 -9 4 5 -7 21 11 49 25 40 5 -3 9 -2 8 3 -3 19 2 33
12 33 5 0 7 -6 3 -12 -4 -8 -3 -9 2 -5 5 5 9 16 9 25 0 10 7 16 18 16 9 -1 17
2 17 7 0 5 -6 9 -12 9 -7 0 -2 7 10 16 12 8 31 13 41 9 11 -3 23 0 27 6 4 8 3
9 -4 5 -7 -4 -20 -2 -29 3 -16 9 -15 11 7 11 14 1 19 4 12 7 -10 4 -9 9 4 24
20 23 36 25 28 4 -4 -8 -11 -12 -18 -8 -6 3 -7 2 -3 -2 11 -13 38 -15 31 -3
-3 5 2 16 12 24 17 12 17 13 2 8 -10 -3 -18 -1 -18 5 0 6 4 11 8 11 5 0 26 18
48 40 37 38 63 53 48 28 -4 -7 -3 -8 4 -4 6 4 9 12 7 19 -4 13 88 97 106 97 6
0 7 -4 4 -10 -3 -6 1 -7 9 -4 9 3 16 10 16 16 0 5 -5 6 -11 2 -7 -4 -10 -1 -7
7 3 8 13 13 22 11 9 -2 15 2 14 8 -2 7 6 17 16 23 11 7 27 19 37 27 39 34 49
41 49 36 0 -3 12 6 26 19 15 14 33 25 40 25 8 0 14 3 14 8 0 4 13 16 28 27 27
19 27 19 12 0 -14 -18 -13 -19 1 -8 9 7 19 10 23 6 4 -4 4 0 0 10 -4 11 0 19
12 23 11 4 26 13 35 21 9 8 26 15 38 16 11 1 23 7 26 15 3 8 12 12 20 8 8 -3
17 0 21 6 5 7 2 8 -7 4 -8 -4 -5 0 5 8 15 12 23 13 33 4 11 -8 12 -7 7 6 -4
10 0 18 12 22 11 3 31 12 47 20 15 8 31 13 36 10 5 -3 12 1 15 9 5 14 9 14 33
-1 19 -11 22 -11 11 -1 -21 17 -23 27 -5 28 6 0 39 13 72 28 47 22 63 26 74
17 12 -9 13 -8 8 7 -7 19 9 24 16 5 3 -8 6 -5 6 5 1 10 6 15 11 12 6 -3 10 -1
10 5 0 6 5 8 10 5 6 -4 7 -11 4 -17 -4 -5 5 -3 18 6 14 9 28 13 33 9 4 -5 5
-2 1 5 -6 9 -12 9 -29 1 -18 -9 -20 -9 -10 1 7 7 22 14 35 15 13 1 30 5 38 8
45 19 97 33 108 30 6 -3 12 0 12 5 0 11 18 11 37 -1 9 -6 11 -3 7 7 -5 12 0
16 17 16 31 -1 75 6 87 14 18 11 83 16 77 6 -4 -6 -1 -10 5 -10 6 0 8 -5 4
-12 -5 -9 -2 -9 9 1 18 15 23 26 7 16 -5 -3 -10 0 -10 7 0 8 8 14 18 15 173
12 253 13 247 1 -4 -7 0 -5 8 5 11 13 17 15 22 7 6 -9 10 -9 16 1 7 11 9 10 9
-3 0 -10 5 -18 11 -18 5 0 7 5 4 10 -3 6 3 10 14 10 12 0 21 -6 21 -12 0 -10
2 -10 8 -2 8 14 83 14 75 1 -3 -5 4 -6 15 -3 25 8 74 -3 66 -15 -3 -5 0 -9 5
-9 6 0 11 5 11 10 0 6 12 8 28 5 15 -3 32 -7 39 -9 7 -1 15 -5 19 -8 3 -4 12
-4 20 -1 8 3 14 0 14 -7 0 -6 4 -9 8 -6 12 7 82 -15 82 -26 0 -5 5 -6 10 -3
13 8 100 -32 118 -54 8 -9 11 -10 7 -4 -4 9 -1 11 9 7 9 -3 16 -10 16 -15 0
-5 3 -8 8 -7 13 2 42 -14 42 -24 0 -5 -4 -7 -9 -3 -5 3 -12 1 -15 -4 -7 -11
13 -9 32 2 6 5 12 4 12 0 0 -5 16 -17 35 -27 19 -11 35 -25 35 -33 0 -8 5 -11
10 -8 6 3 13 -1 16 -9 3 -9 10 -13 16 -10 5 3 8 -2 6 -11 -2 -10 4 -20 12 -22
13 -4 13 -3 0 6 -8 6 -10 11 -4 11 6 0 19 -9 30 -21 14 -16 15 -22 5 -28 -9
-6 -10 -11 -2 -15 6 -4 11 -2 11 3 0 6 5 11 11 11 6 0 9 -7 6 -15 -4 -8 -1
-17 5 -21 7 -4 8 -3 4 4 -4 7 -4 12 -1 12 17 0 81 -90 77 -108 -2 -8 1 -11 7
-7 10 6 16 -8 12 -28 -1 -5 3 -6 8 -3 8 5 41 -55 84 -154 8 -19 23 -64 32
-100 30 -121 34 -130 29 -75 -5 53 -11 97 -14 105 -1 3 -2 9 -1 13 2 13 -38
148 -55 185 -9 18 -16 42 -17 52 -1 11 -4 20 -7 20 -3 0 -14 19 -25 43 -59
137 -233 338 -376 434 -76 52 -178 107 -239 131 -47 18 -151 53 -170 57 -8 2
-15 4 -15 5 0 1 -9 3 -20 5 -11 2 -36 7 -55 11 -47 9 -77 13 -126 18 -23 2
-47 7 -53 10 -6 4 -11 4 -11 -1 0 -4 -5 -1 -10 7 -5 8 -10 10 -10 5 0 -6 -11
-11 -25 -11 -14 0 -25 3 -25 6 0 8 -48 5 -57 -3 -3 -4 -11 -2 -18 3 -7 5 -14
8 -17 5z"/>
<path d="M3686 4963 c-6 -14 -5 -15 5 -6 7 7 10 15 7 18 -3 3 -9 -2 -12 -12z"/>
<path d="M3741 4960 c-9 -5 -4 -7 13 -7 29 0 32 2 13 10 -8 3 -20 2 -26 -3z"/>
<path d="M2486 4938 c3 -5 10 -6 15 -3 13 9 11 12 -6 12 -8 0 -12 -4 -9 -9z"/>
<path d="M3793 4943 c4 -3 1 -13 -6 -22 -11 -14 -10 -14 6 -2 20 15 22 31 5
31 -6 0 -8 -3 -5 -7z"/>
<path d="M3816 4921 c-4 -5 3 -7 14 -4 23 6 26 13 6 13 -8 0 -17 -4 -20 -9z"/>
<path d="M3834 4902 c4 -3 14 -7 22 -8 9 -1 13 0 10 4 -4 3 -14 7 -22 8 -9 1
-13 0 -10 -4z"/>
<path d="M3895 4901 c-3 -5 0 -13 6 -17 7 -4 9 -3 5 4 -3 5 0 13 6 15 9 4 10
6 1 6 -6 1 -14 -3 -18 -8z"/>
<path d="M3909 4863 c-13 -16 -12 -17 4 -4 16 13 21 21 13 21 -2 0 -10 -8 -17
-17z"/>
<path d="M4015 4840 c-3 -5 -1 -10 4 -10 6 0 11 5 11 10 0 6 -2 10 -4 10 -3 0
-8 -4 -11 -10z"/>
<path d="M4015 4801 c3 -3 17 -6 31 -7 13 0 22 2 19 5 -3 3 -17 6 -31 7 -13 0
-22 -2 -19 -5z"/>
<path d="M4158 4723 c7 -3 16 -2 19 1 4 3 -2 6 -13 5 -11 0 -14 -3 -6 -6z"/>
<path d="M3075 4672 c-14 -20 -15 -24 -2 -14 9 8 20 11 26 8 5 -3 7 3 4 14 -6
24 -4 25 -28 -8z"/>
<path d="M3141 4684 c0 -11 3 -14 6 -6 3 7 2 16 -1 19 -3 4 -6 -2 -5 -13z"/>
<path d="M3296 4684 c-4 -10 -2 -22 4 -28 8 -8 9 -5 4 9 -7 18 -6 19 12 5 18
-14 18 -14 4 5 -8 11 -15 21 -16 23 -1 2 -4 -5 -8 -14z"/>
<path d="M3012 4686 c2 -1 12 -8 22 -16 11 -8 17 -10 13 -3 -4 6 -1 13 5 16 7
2 0 4 -15 4 -15 0 -27 0 -25 -1z"/>
<path d="M3230 4680 c0 -5 6 -9 13 -7 6 1 11 -4 9 -11 -1 -8 2 -11 8 -7 8 5 7
11 -1 21 -13 16 -29 18 -29 4z"/>
<path d="M3343 4683 c9 -8 47 -11 47 -4 0 5 -11 9 -25 9 -14 0 -24 -2 -22 -5z"/>
<path d="M2894 4669 c1 -7 10 -13 19 -15 9 -1 15 2 11 7 -3 5 -9 7 -14 4 -4
-3 -11 0 -13 5 -3 6 -4 5 -3 -1z"/>
<path d="M2870 4661 c0 -6 4 -13 10 -16 6 -3 7 1 4 9 -7 18 -14 21 -14 7z"/>
<path d="M2976 4661 c-3 -4 6 -6 19 -3 14 2 25 6 25 8 0 8 -39 4 -44 -5z"/>
<path d="M4216 4662 c-2 -4 4 -8 14 -8 10 0 16 4 14 8 -3 4 -9 8 -14 8 -5 0
-11 -4 -14 -8z"/>
<path d="M3190 4656 c0 -2 8 -10 18 -17 15 -13 16 -12 3 4 -13 16 -21 21 -21
13z"/>
<path d="M3600 4651 c0 -6 4 -13 10 -16 6 -3 7 1 4 9 -7 18 -14 21 -14 7z"/>
<path d="M2771 4634 c0 -11 3 -14 6 -6 3 7 2 16 -1 19 -3 4 -6 -2 -5 -13z"/>
<path d="M2840 4646 c0 -2 7 -7 16 -10 8 -3 12 -2 9 4 -6 10 -25 14 -25 6z"/>
<path d="M3440 4640 c-9 -6 -10 -10 -3 -10 6 0 15 5 18 10 8 12 4 12 -15 0z"/>
<path d="M3515 4640 c3 -5 8 -10 11 -10 2 0 4 5 4 10 0 6 -5 10 -11 10 -5 0
-7 -4 -4 -10z"/>
<path d="M2797 4629 c7 -7 15 -10 18 -7 3 3 -2 9 -12 12 -14 6 -15 5 -6 -5z"/>
<path d="M3670 4630 c8 -5 20 -10 25 -10 6 0 3 5 -5 10 -8 5 -19 10 -25 10 -5
0 -3 -5 5 -10z"/>
<path d="M3556 4618 c3 -5 10 -6 15 -3 13 9 11 12 -6 12 -8 0 -12 -4 -9 -9z"/>
<path d="M3633 4623 c4 -3 -1 -16 -10 -27 -18 -21 -18 -21 5 -2 24 21 29 36
10 36 -6 0 -8 -3 -5 -7z"/>
<path d="M4275 4620 c-3 -5 -1 -10 4 -10 6 0 11 5 11 10 0 6 -2 10 -4 10 -3 0
-8 -4 -11 -10z"/>
<path d="M2650 4605 c0 -8 4 -15 10 -15 5 0 7 7 4 15 -4 8 -8 15 -10 15 -2 0
-4 -7 -4 -15z"/>
<path d="M2710 4611 c0 -6 4 -13 10 -16 6 -3 7 1 4 9 -7 18 -14 21 -14 7z"/>
<path d="M2756 4607 c3 -10 9 -15 12 -12 3 3 0 11 -7 18 -10 9 -11 8 -5 -6z"/>
<path d="M2690 4601 c0 -6 4 -13 10 -16 6 -3 7 1 4 9 -7 18 -14 21 -14 7z"/>
<path d="M3755 4600 c3 -5 8 -10 11 -10 2 0 4 5 4 10 0 6 -5 10 -11 10 -5 0
-7 -4 -4 -10z"/>
<path d="M2595 4589 c-4 -6 -5 -12 -2 -15 2 -3 7 2 10 11 7 17 1 20 -8 4z"/>
<path d="M2616 4582 c-2 -4 -1 -14 4 -22 7 -11 9 -9 7 8 -1 24 -3 26 -11 14z"/>
<path d="M3810 4569 c0 -5 -4 -8 -9 -5 -11 7 -8 -20 3 -31 4 -4 6 -1 4 7 -1 8
2 14 9 13 7 -2 10 4 7 12 -7 17 -14 20 -14 4z"/>
<path d="M3840 4546 c0 -2 7 -7 16 -10 8 -3 12 -2 9 4 -6 10 -25 14 -25 6z"/>
<path d="M2393 4516 c-3 -6 -3 -8 2 -4 4 4 13 3 20 -2 8 -7 12 -5 12 3 0 16
-25 18 -34 3z"/>
<path d="M2456 4513 c-6 -14 -5 -15 5 -6 7 7 10 15 7 18 -3 3 -9 -2 -12 -12z"/>
<path d="M2360 4506 c0 -2 7 -7 16 -10 8 -3 12 -2 9 4 -6 10 -25 14 -25 6z"/>
<path d="M3965 4480 c10 -11 20 -20 23 -20 3 0 -3 9 -13 20 -10 11 -20 20 -23
20 -3 0 3 -9 13 -20z"/>
<path d="M2315 4480 c-4 -6 -1 -9 7 -8 7 2 12 -3 10 -10 -1 -8 2 -11 8 -7 8 5
7 11 -1 21 -14 17 -16 17 -24 4z"/>
<path d="M2410 4480 c0 -5 5 -10 11 -10 5 0 7 5 4 10 -3 6 -8 10 -11 10 -2 0
-4 -4 -4 -10z"/>
<path d="M2370 4466 c0 -2 7 -7 16 -10 8 -3 12 -2 9 4 -6 10 -25 14 -25 6z"/>
<path d="M2221 4434 c0 -11 3 -14 6 -6 3 7 2 16 -1 19 -3 4 -6 -2 -5 -13z"/>
<path d="M2256 4433 c-6 -14 -5 -15 5 -6 7 7 10 15 7 18 -3 3 -9 -2 -12 -12z"/>
<path d="M4396 4433 c-6 -14 -5 -15 5 -6 7 7 10 15 7 18 -3 3 -9 -2 -12 -12z"/>
<path d="M2158 4413 c7 -3 16 -2 19 1 4 3 -2 6 -13 5 -11 0 -14 -3 -6 -6z"/>
<path d="M2120 4391 c0 -6 4 -13 10 -16 6 -3 7 1 4 9 -7 18 -14 21 -14 7z"/>
<path d="M2066 4344 c-5 -14 -4 -15 9 -4 17 14 19 20 6 20 -5 0 -12 -7 -15
-16z"/>
<path d="M2000 4325 c-7 -8 -9 -15 -6 -15 4 0 14 7 22 15 9 8 11 15 6 15 -5 0
-15 -7 -22 -15z"/>
<path d="M4475 4310 c10 -11 20 -20 23 -20 3 0 -3 9 -13 20 -10 11 -20 20 -23
20 -3 0 3 -9 13 -20z"/>
<path d="M4155 4295 c0 -13 2 -26 5 -29 3 -3 6 5 5 19 0 13 -2 26 -5 29 -3 3
-6 -5 -5 -19z"/>
<path d="M1974 4276 c1 -8 5 -18 8 -22 4 -3 5 1 4 10 -1 8 -5 18 -8 22 -4 3
-5 -1 -4 -10z"/>
<path d="M1930 4256 c0 -2 8 -10 18 -17 15 -13 16 -12 3 4 -13 16 -21 21 -21
13z"/>
<path d="M1868 4223 c7 -3 16 -2 19 1 4 3 -2 6 -13 5 -11 0 -14 -3 -6 -6z"/>
<path d="M1796 4153 c-6 -14 -5 -15 5 -6 7 7 10 15 7 18 -3 3 -9 -2 -12 -12z"/>
<path d="M1630 4060 c0 -5 5 -10 10 -10 6 0 10 5 10 10 0 6 -4 10 -10 10 -5 0
-10 -4 -10 -10z"/>
<path d="M1590 4010 c-9 -6 -10 -10 -3 -10 6 0 15 5 18 10 8 12 4 12 -15 0z"/>
<path d="M1476 3922 c-3 -5 1 -9 9 -9 8 0 12 4 9 9 -3 4 -7 8 -9 8 -2 0 -6 -4
-9 -8z"/>
<path d="M1335 3749 c-4 -6 -5 -12 -2 -15 2 -3 7 2 10 11 7 17 1 20 -8 4z"/>
<path d="M1270 3690 c0 -5 5 -10 11 -10 5 0 7 5 4 10 -3 6 -8 10 -11 10 -2 0
-4 -4 -4 -10z"/>
<path d="M1196 3622 c-2 -4 -1 -14 4 -22 7 -11 9 -9 7 8 -1 24 -3 26 -11 14z"/>
<path d="M4879 3398 c-6 -20 -6 -39 0 -42 4 -3 7 6 7 20 0 20 -4 32 -7 22z"/>
<path d="M5011 3396 c2 -2 14 -9 26 -15 18 -9 22 -9 18 2 -3 7 -15 13 -26 14
-12 1 -20 1 -18 -1z"/>
<path d="M5276 3383 c-4 -9 -2 -21 4 -27 8 -8 9 -6 4 8 -5 13 -4 17 4 12 8 -5
10 -2 6 8 -8 20 -10 20 -18 -1z"/>
<path d="M4710 3381 c0 -6 4 -12 8 -15 5 -3 9 1 9 9 0 8 -4 15 -9 15 -4 0 -8
-4 -8 -9z"/>
<path d="M4979 3388 c-6 -21 -5 -37 2 -32 5 3 7 9 4 14 -3 4 1 11 7 13 10 4
10 6 1 6 -7 1 -13 0 -14 -1z"/>
<path d="M5075 3380 c-3 -5 -1 -10 4 -10 6 0 11 5 11 10 0 6 -2 10 -4 10 -3 0
-8 -4 -11 -10z"/>
<path d="M5215 3381 c-4 -7 0 -8 11 -4 11 4 15 3 10 -5 -3 -6 -2 -13 3 -16 5
-4 8 2 7 11 -3 20 -21 28 -31 14z"/>
<path d="M5315 3380 c-3 -5 -1 -10 4 -10 6 0 11 5 11 10 0 6 -2 10 -4 10 -3 0
-8 -4 -11 -10z"/>
<path d="M1016 3362 c-3 -5 1 -9 9 -9 8 0 12 4 9 9 -3 4 -7 8 -9 8 -2 0 -6 -4
-9 -8z"/>
<path d="M793 2885 c0 -8 4 -12 9 -9 5 3 6 10 3 15 -9 13 -12 11 -12 -6z"/>
<path d="M95 1850 c3 -74 8 -153 11 -175 4 -22 7 -52 8 -67 0 -16 3 -28 7 -28
7 0 23 -78 20 -94 -1 -4 2 -13 7 -20 5 -6 8 -21 7 -33 -1 -12 1 -20 5 -18 6 4
35 -83 32 -97 -1 -5 3 -8 9 -8 6 0 9 -6 6 -14 -3 -8 -1 -16 4 -18 5 -2 11 -13
12 -26 0 -12 5 -22 10 -22 5 0 6 -7 3 -16 -3 -8 -2 -12 4 -9 9 6 14 -8 11 -27
0 -5 4 -8 10 -8 6 0 8 -7 5 -16 -3 -8 -2 -13 2 -10 4 3 14 -4 21 -16 9 -14 9
-18 1 -13 -9 6 -9 2 -1 -14 12 -22 27 -30 16 -8 -4 6 1 3 9 -7 9 -11 16 -24
16 -29 0 -5 10 -22 21 -39 18 -25 19 -32 8 -40 -11 -7 -9 -8 6 -4 15 4 27 -5
48 -35 26 -38 29 -67 5 -53 -7 5 -8 2 -3 -5 5 -9 10 -10 18 -2 20 20 27 12 22
-21 -4 -23 -2 -29 4 -18 5 8 7 18 5 22 -3 4 0 8 5 8 6 0 11 -4 11 -10 0 -5 25
-33 55 -61 30 -29 51 -57 48 -62 -3 -6 -1 -7 5 -3 7 4 25 -7 43 -26 18 -18 28
-26 25 -18 -7 13 -6 13 6 0 7 -8 36 -31 63 -50 28 -19 52 -38 53 -42 2 -4 10
-8 18 -8 8 0 14 -10 15 -22 0 -22 1 -22 9 -3 5 11 9 15 9 10 1 -6 17 -17 37
-24 19 -7 38 -19 41 -27 3 -8 13 -14 23 -14 10 0 25 -6 32 -12 7 -7 19 -13 26
-14 33 -3 34 -4 21 -21 -13 -15 -12 -15 9 -4 13 7 22 8 22 2 0 -6 7 -8 15 -5
8 4 17 -1 21 -10 3 -9 10 -16 16 -16 5 0 6 6 3 13 -4 6 2 2 13 -11 11 -12 22
-18 24 -12 2 7 15 6 38 -1 19 -7 41 -14 48 -15 8 -2 10 -9 6 -16 -6 -9 -9 -9
-12 0 -2 7 -8 12 -14 12 -6 0 -5 -6 2 -15 11 -14 15 -14 29 -1 11 10 21 12 34
5 9 -6 22 -7 28 -4 6 4 13 -2 16 -14 3 -12 9 -21 14 -21 5 0 7 6 5 12 -1 7 -1
10 1 7 2 -4 13 -4 25 -1 14 3 19 1 14 -6 -4 -7 -2 -12 3 -12 6 0 11 6 11 13 0
7 3 8 8 2 7 -10 26 -14 84 -18 18 -1 27 -7 25 -16 -1 -8 7 -15 20 -16 12 -1
20 2 17 7 -4 5 -13 7 -21 4 -8 -3 -11 -2 -8 4 3 5 19 8 35 7 31 -2 39 -12 18
-20 -8 -3 -6 -6 5 -6 9 -1 17 4 17 9 0 6 5 10 11 10 6 0 9 -6 6 -13 -3 -8 3
-13 17 -14 11 0 15 1 9 4 -7 3 -13 9 -13 13 0 11 40 9 41 -2 1 -4 2 -12 3 -17
0 -5 5 -13 10 -18 5 -5 6 -2 1 6 -6 11 -3 13 13 9 12 -4 20 -2 17 2 -3 5 3 14
14 20 14 7 22 7 26 0 4 -6 16 -8 27 -4 13 4 24 1 29 -7 5 -8 9 -9 9 -4 0 6 21
11 48 10 26 0 62 3 79 6 18 4 31 3 28 -1 -2 -4 9 -7 25 -6 17 1 30 4 30 7 0 3
18 6 39 6 29 0 41 -4 44 -16 4 -14 5 -14 6 2 1 18 2 19 41 21 14 2 47 6 74 10
38 6 47 5 41 -6 -3 -7 1 -4 9 6 9 11 19 17 22 13 4 -4 2 -12 -3 -19 -6 -7 -10
-21 -10 -31 0 -22 12 -11 12 11 0 9 6 16 14 14 8 -2 11 3 8 12 -3 8 1 17 9 20
9 3 12 1 9 -4 -3 -6 -1 -10 4 -10 6 0 11 5 11 11 0 5 4 8 10 4 5 -3 7 -12 3
-20 -3 -8 0 -15 5 -15 6 0 9 9 7 21 -3 17 0 20 15 16 11 -3 18 -2 15 3 -3 4
11 10 29 12 22 2 33 0 30 -7 -3 -5 0 -3 8 5 13 15 26 20 63 25 11 2 25 4 30 5
22 5 36 -1 29 -12 -4 -7 -3 -8 4 -4 6 4 9 12 6 20 -6 15 25 18 44 3 6 -5 12
-6 12 -1 0 4 7 -1 16 -12 14 -18 15 -18 4 4 -6 12 -15 20 -21 17 -5 -4 -9 -1
-9 4 0 17 28 13 40 -6 9 -16 10 -15 5 5 -4 13 -2 22 4 22 6 0 11 -4 11 -9 0
-5 7 -12 16 -15 14 -5 15 -4 4 9 -7 9 -10 19 -6 22 4 4 11 1 16 -7 8 -13 10
-12 10 3 0 9 8 17 18 17 9 0 36 9 60 20 23 11 40 15 37 10 -3 -6 -1 -10 4 -10
6 0 11 5 11 11 0 8 4 8 14 0 11 -9 16 -9 22 0 4 8 3 9 -4 5 -7 -4 -12 -3 -12
3 0 15 18 23 25 11 3 -5 11 -10 16 -10 6 0 7 5 3 12 -5 7 -2 9 9 5 10 -4 14
-2 11 7 -3 7 2 13 10 13 8 0 13 -5 10 -11 -3 -6 1 -3 9 6 11 14 16 15 26 5 10
-9 11 -8 5 7 -5 13 -4 17 4 12 6 -3 14 -2 17 4 5 8 11 7 21 -1 9 -7 14 -8 12
-3 -2 5 2 10 7 11 6 1 9 -5 9 -12 -1 -8 2 -12 8 -9 5 3 6 13 3 23 -4 13 6 22
42 36 27 11 52 19 56 17 4 -1 14 3 22 10 39 36 44 38 51 27 5 -8 12 -4 23 10
9 12 27 23 39 24 12 0 24 7 27 15 3 7 9 10 15 7 5 -3 10 -2 10 3 0 6 14 15 32
21 24 9 34 8 40 -1 6 -8 7 -3 2 12 -6 22 -5 23 9 12 10 -9 17 -10 22 -2 3 6
11 7 17 4 7 -4 8 -2 4 5 -6 9 -11 9 -22 0 -8 -6 -14 -7 -14 -2 0 6 18 18 40
28 22 10 40 22 40 28 0 5 8 3 17 -4 9 -8 14 -9 11 -4 -3 6 0 16 8 23 8 7 14 9
14 5 0 -4 6 0 13 9 8 9 20 18 28 20 7 2 20 10 27 18 12 13 13 13 6 0 -4 -8 3
-5 15 7 28 29 76 54 86 45 5 -4 5 -2 2 4 -6 10 28 43 72 69 10 6 12 4 7 -6 -4
-8 0 -5 9 6 14 17 17 18 26 5 8 -11 9 -9 3 10 -3 14 -3 22 1 18 4 -4 23 9 42
27 20 19 44 37 54 40 11 4 19 11 19 17 0 6 2 9 5 6 3 -3 20 8 37 26 23 22 33
27 36 17 3 -8 10 0 19 20 14 33 15 33 30 14 15 -20 15 -20 9 1 -7 23 16 50 33
39 7 -4 8 1 4 11 -4 12 -3 15 5 10 8 -4 12 0 13 11 0 10 3 13 6 6 2 -7 9 -13
14 -13 6 0 7 5 4 11 -9 14 25 51 41 45 9 -3 11 1 7 11 -5 12 -2 15 10 10 9 -3
16 -3 16 1 -3 18 2 32 11 32 5 0 7 -8 5 -17 -3 -10 1 -4 9 13 18 38 41 58 57
48 7 -4 9 -3 6 4 -8 12 63 92 82 92 7 0 10 4 6 9 -3 6 4 15 15 21 11 6 17 16
14 22 -5 7 -1 9 9 5 12 -5 17 -1 17 13 0 10 4 22 10 25 5 3 8 0 7 -7 -2 -7 1
-3 7 10 12 26 28 30 20 5 -5 -14 -4 -15 4 -4 6 8 8 20 5 28 -3 7 2 16 11 19 9
3 16 12 16 19 0 7 3 15 8 17 9 4 72 81 72 88 0 3 -231 5 -514 5 l-513 0 -49
-44 c-27 -24 -53 -49 -59 -55 -8 -9 -72 -61 -200 -164 -22 -17 -132 -98 -162
-119 -17 -12 -34 -19 -37 -15 -3 3 -6 1 -6 -5 0 -6 -43 -37 -96 -69 -145 -90
-168 -102 -176 -97 -5 2 -8 0 -8 -5 0 -16 -353 -184 -416 -197 -6 -2 -27 -10
-45 -18 -58 -27 -269 -88 -279 -82 -6 3 -10 2 -10 -3 0 -6 -17 -13 -37 -17
-21 -5 -45 -10 -53 -12 -8 -2 -28 -5 -45 -7 -16 -2 -37 -6 -45 -10 -8 -3 -37
-8 -65 -10 -27 -3 -50 -5 -50 -6 0 -13 -428 -33 -440 -21 -2 2 -28 5 -57 7
-29 1 -66 5 -83 8 -16 3 -52 8 -80 12 -27 3 -53 8 -58 11 -4 2 -20 7 -35 9
-107 20 -355 123 -405 169 -12 11 -24 19 -27 18 -3 -1 -35 20 -72 48 -57 42
-105 88 -211 201 -10 10 -15 24 -11 30 4 6 3 8 -3 5 -9 -6 -91 113 -84 122 1
2 -2 7 -7 10 -13 9 -54 91 -45 91 5 0 3 4 -2 8 -15 11 -36 62 -30 73 4 5 2 9
-4 9 -9 0 -34 75 -45 135 -27 159 -36 165 -31 25z m1595 -1532 c0 -4 -7 -8
-15 -8 -8 0 -15 4 -15 8 0 5 7 9 15 9 8 0 15 -4 15 -9z"/>
<path d="M153 1805 c0 -8 4 -12 9 -9 5 3 6 10 3 15 -9 13 -12 11 -12 -6z"/>
<path d="M4633 1695 c0 -8 4 -12 9 -9 5 3 6 10 3 15 -9 13 -12 11 -12 -6z"/>
<path d="M4596 1667 c3 -10 9 -15 12 -12 3 3 0 11 -7 18 -10 9 -11 8 -5 -6z"/>
<path d="M3250 1619 c0 -5 5 -7 10 -4 6 3 10 8 10 11 0 2 -4 4 -10 4 -5 0 -10
-5 -10 -11z"/>
<path d="M270 1601 c0 -6 4 -13 10 -16 6 -3 7 1 4 9 -7 18 -14 21 -14 7z"/>
<path d="M314 1516 c1 -8 5 -18 8 -22 4 -3 5 1 4 10 -1 8 -5 18 -8 22 -4 3 -5
-1 -4 -10z"/>
<path d="M4430 1479 c0 -5 5 -7 10 -4 6 3 10 8 10 11 0 2 -4 4 -10 4 -5 0 -10
-5 -10 -11z"/>
<path d="M3034 1466 c1 -8 5 -18 8 -22 4 -3 5 1 4 10 -1 8 -5 18 -8 22 -4 3
-5 -1 -4 -10z"/>
<path d="M358 1453 c7 -3 16 -2 19 1 4 3 -2 6 -13 5 -11 0 -14 -3 -6 -6z"/>
<path d="M4413 1445 c0 -8 4 -12 9 -9 5 3 6 10 3 15 -9 13 -12 11 -12 -6z"/>
<path d="M4351 1404 c0 -11 3 -14 6 -6 3 7 2 16 -1 19 -3 4 -6 -2 -5 -13z"/>
<path d="M4290 1339 c0 -5 5 -7 10 -4 6 3 10 8 10 11 0 2 -4 4 -10 4 -5 0 -10
-5 -10 -11z"/>
<path d="M440 1326 c0 -2 8 -10 18 -17 15 -13 16 -12 3 4 -13 16 -21 21 -21
13z"/>
<path d="M2753 1289 c-2 -23 3 -25 10 -4 4 8 3 16 -1 19 -4 3 -9 -4 -9 -15z"/>
<path d="M2707 1266 c-4 -10 -1 -13 8 -9 8 3 12 9 9 14 -7 12 -11 11 -17 -5z"/>
<path d="M510 1260 c0 -5 9 -8 20 -7 21 1 18 10 -5 13 -8 1 -15 -2 -15 -6z"/>
<path d="M4176 1235 c-9 -26 -7 -32 5 -12 6 10 9 21 6 23 -2 3 -7 -2 -11 -11z"/>
<path d="M2580 1226 c0 -2 7 -9 15 -16 9 -7 15 -8 15 -2 0 5 -7 12 -15 16 -8
3 -15 4 -15 2z"/>
<path d="M550 1199 c0 -5 5 -7 10 -4 6 3 10 8 10 11 0 2 -4 4 -10 4 -5 0 -10
-5 -10 -11z"/>
<path d="M2569 1197 c6 -8 7 -18 3 -22 -4 -5 -1 -5 6 -1 10 6 10 11 1 22 -6 8
-14 14 -16 14 -3 0 0 -6 6 -13z"/>
<path d="M4115 1200 c-3 -5 -1 -10 4 -10 6 0 11 5 11 10 0 6 -2 10 -4 10 -3 0
-8 -4 -11 -10z"/>
<path d="M4055 1171 c-3 -5 -2 -12 3 -15 5 -3 9 1 9 9 0 17 -3 19 -12 6z"/>
<path d="M630 1166 c0 -2 7 -7 16 -10 8 -3 12 -2 9 4 -6 10 -25 14 -25 6z"/>
<path d="M2435 1161 c-3 -5 -2 -12 3 -15 5 -3 9 1 9 9 0 17 -3 19 -12 6z"/>
<path d="M2460 1160 c0 -5 5 -10 11 -10 5 0 7 5 4 10 -3 6 -8 10 -11 10 -2 0
-4 -4 -4 -10z"/>
<path d="M700 1146 c0 -2 9 -6 20 -9 11 -3 18 -1 14 4 -5 9 -34 13 -34 5z"/>
<path d="M2370 1125 c0 -8 4 -15 10 -15 5 0 7 7 4 15 -4 8 -8 15 -10 15 -2 0
-4 -7 -4 -15z"/>
<path d="M750 1119 c0 -5 5 -7 10 -4 6 3 10 8 10 11 0 2 -4 4 -10 4 -5 0 -10
-5 -10 -11z"/>
<path d="M4030 1119 c0 -5 5 -7 10 -4 6 3 10 8 10 11 0 2 -4 4 -10 4 -5 0 -10
-5 -10 -11z"/>
<path d="M3990 1109 c0 -5 -6 -7 -12 -3 -7 4 -9 3 -5 -1 13 -15 34 -14 34 1 0
8 -4 14 -9 14 -4 0 -8 -5 -8 -11z"/>
<path d="M773 1095 c0 -8 4 -12 9 -9 5 3 6 10 3 15 -9 13 -12 11 -12 -6z"/>
<path d="M2290 1100 c-9 -6 -10 -10 -3 -10 6 0 15 5 18 10 8 12 4 12 -15 0z"/>
<path d="M2260 1080 c8 -5 20 -10 25 -10 6 0 3 5 -5 10 -8 5 -19 10 -25 10 -5
0 -3 -5 5 -10z"/>
<path d="M2191 1071 c-7 -5 -15 -21 -16 -35 -2 -14 1 -24 6 -20 5 3 7 10 3 15
-8 13 16 40 29 32 6 -3 7 -1 3 5 -8 14 -7 14 -25 3z"/>
<path d="M2237 1069 c7 -7 15 -10 18 -7 3 3 -2 9 -12 12 -14 6 -15 5 -6 -5z"/>
<path d="M870 1060 c-12 -7 -10 -9 7 -7 12 0 19 5 17 9 -6 10 -6 10 -24 -2z"/>
<path d="M3936 1061 c-4 -5 3 -7 14 -4 23 6 26 13 6 13 -8 0 -17 -4 -20 -9z"/>
<path d="M835 1051 c-3 -5 -2 -12 3 -15 5 -3 9 1 9 9 0 17 -3 19 -12 6z"/>
<path d="M2106 1038 c3 -4 9 -8 15 -8 5 0 9 4 9 8 0 5 -7 9 -15 9 -8 0 -12 -4
-9 -9z"/>
<path d="M2215 1040 c3 -5 8 -10 11 -10 2 0 4 5 4 10 0 6 -5 10 -11 10 -5 0
-7 -4 -4 -10z"/>
<path d="M935 1029 c-4 -6 -5 -12 -2 -15 2 -3 7 2 10 11 7 17 1 20 -8 4z"/>
<path d="M976 1014 c-9 -23 -7 -31 4 -14 11 18 31 20 43 5 5 -6 7 -5 5 4 -6
20 -45 24 -52 5z"/>
<path d="M2140 1020 c-9 -6 -10 -10 -3 -10 6 0 15 5 18 10 8 12 4 12 -15 0z"/>
<path d="M1066 1005 c4 -8 11 -15 16 -15 6 0 5 6 -2 15 -7 8 -14 15 -16 15 -2
0 -1 -7 2 -15z"/>
<path d="M1977 990 c-3 -11 -3 -20 -1 -20 2 0 8 9 14 20 6 11 7 20 2 20 -6 0
-12 -9 -15 -20z"/>
<path d="M2019 993 c-12 -16 -12 -17 2 -6 9 7 19 10 22 6 4 -3 7 -1 7 5 0 17
-16 15 -31 -5z"/>
<path d="M3830 1000 c0 -5 5 -10 11 -10 5 0 7 5 4 10 -3 6 -8 10 -11 10 -2 0
-4 -4 -4 -10z"/>
<path d="M1033 973 c0 -9 4 -10 14 -2 7 6 13 12 13 14 0 1 -6 2 -13 2 -8 0
-14 -6 -14 -14z"/>
<path d="M1095 981 c-6 -11 13 -26 22 -17 4 3 1 6 -6 6 -7 0 -9 5 -6 10 3 6 4
10 1 10 -3 0 -7 -4 -11 -9z"/>
<path d="M1135 981 c-3 -5 0 -13 6 -17 7 -4 9 -3 5 4 -3 5 0 13 6 15 9 4 10 6
1 6 -6 1 -14 -3 -18 -8z"/>
<path d="M3810 980 c0 -5 5 -10 11 -10 5 0 7 5 4 10 -3 6 -8 10 -11 10 -2 0
-4 -4 -4 -10z"/>
<path d="M1870 971 c0 -6 4 -12 8 -15 5 -3 9 1 9 9 0 8 -4 15 -9 15 -4 0 -8
-4 -8 -9z"/>
<path d="M1913 965 c0 -8 4 -12 9 -9 5 3 6 10 3 15 -9 13 -12 11 -12 -6z"/>
<path d="M1319 953 c-13 -16 -12 -17 4 -4 16 13 21 21 13 21 -2 0 -10 -8 -17
-17z"/>
<path d="M1590 948 c-10 -21 -10 -21 3 -6 8 10 18 14 22 10 5 -4 5 -1 1 6 -10
17 -14 15 -26 -10z"/>
<path d="M1784 954 c-18 -15 -18 -15 2 -5 12 6 25 7 29 3 5 -4 5 -1 1 6 -9 15
-8 15 -32 -4z"/>
<path d="M1230 956 c0 -2 9 -6 20 -9 11 -3 18 -1 14 4 -5 9 -34 13 -34 5z"/>
<path d="M1460 950 c-9 -6 -10 -10 -3 -10 6 0 15 5 18 10 8 12 4 12 -15 0z"/>
<path d="M1520 951 c0 -6 4 -13 10 -16 6 -3 7 1 4 9 -7 18 -14 21 -14 7z"/>
<path d="M1722 944 c10 -10 20 -16 22 -13 3 3 -5 11 -17 18 -21 13 -21 12 -5
-5z"/>
<path d="M1373 935 c0 -8 4 -12 9 -9 5 3 6 10 3 15 -9 13 -12 11 -12 -6z"/>
<path d="M1630 943 c0 -6 8 -17 18 -24 16 -13 16 -13 2 6 -8 11 -16 22 -17 24
-2 2 -3 0 -3 -6z"/>
<path d="M3731 927 c-8 -10 -7 -14 2 -14 8 0 14 6 14 14 0 7 -1 13 -2 13 -2 0
-8 -6 -14 -13z"/>
<path d="M1455 920 c3 -5 8 -10 11 -10 2 0 4 5 4 10 0 6 -5 10 -11 10 -5 0 -7
-4 -4 -10z"/>
<path d="M3753 885 c0 -8 4 -12 9 -9 5 3 6 10 3 15 -9 13 -12 11 -12 -6z"/>
<path d="M3638 863 c7 -3 16 -2 19 1 4 3 -2 6 -13 5 -11 0 -14 -3 -6 -6z"/>
<path d="M416 847 c3 -10 9 -15 12 -12 3 3 0 11 -7 18 -10 9 -11 8 -5 -6z"/>
<path d="M3625 840 c3 -5 8 -10 11 -10 2 0 4 5 4 10 0 6 -5 10 -11 10 -5 0 -7
-4 -4 -10z"/>
<path d="M3590 819 c0 -5 5 -7 10 -4 6 3 10 8 10 11 0 2 -4 4 -10 4 -5 0 -10
-5 -10 -11z"/>
<path d="M497 809 c7 -7 15 -10 18 -7 3 3 -2 9 -12 12 -14 6 -15 5 -6 -5z"/>
<path d="M3554 795 c0 -13 3 -22 7 -19 8 4 6 30 -2 38 -3 3 -5 -5 -5 -19z"/>
<path d="M490 786 c0 -2 7 -7 16 -10 8 -3 12 -2 9 4 -6 10 -25 14 -25 6z"/>
<path d="M3495 751 c-3 -5 -2 -12 3 -15 5 -3 9 1 9 9 0 17 -3 19 -12 6z"/>
<path d="M3395 729 c-4 -6 -5 -12 -2 -15 2 -3 7 2 10 11 7 17 1 20 -8 4z"/>
<path d="M599 693 c-13 -16 -12 -17 4 -4 9 7 17 15 17 17 0 8 -8 3 -21 -13z"/>
<path d="M3360 706 c0 -2 7 -7 16 -10 8 -3 12 -2 9 4 -6 10 -25 14 -25 6z"/>
<path d="M3410 699 c0 -5 5 -7 10 -4 6 3 10 8 10 11 0 2 -4 4 -10 4 -5 0 -10
-5 -10 -11z"/>
<path d="M3315 682 c3 -3 -3 -11 -13 -19 -15 -13 -15 -13 5 -3 28 13 37 27 18
27 -8 0 -13 -3 -10 -5z"/>
<path d="M711 633 c7 -12 15 -20 18 -17 3 2 -3 12 -13 22 -17 16 -18 16 -5 -5z"/>
<path d="M3236 641 c9 -9 34 -9 34 -1 0 5 -9 8 -20 7 -10 -1 -17 -3 -14 -6z"/>
<path d="M690 620 c0 -5 5 -10 11 -10 5 0 7 5 4 10 -3 6 -8 10 -11 10 -2 0 -4
-4 -4 -10z"/>
<path d="M3219 628 c-5 -18 -6 -38 -1 -34 7 8 12 36 6 36 -2 0 -4 -1 -5 -2z"/>
<path d="M743 605 c0 -8 4 -12 9 -9 5 3 6 10 3 15 -9 13 -12 11 -12 -6z"/>
<path d="M3181 604 c0 -11 3 -14 6 -6 3 7 2 16 -1 19 -3 4 -6 -2 -5 -13z"/>
<path d="M3130 603 c0 -5 5 -15 10 -23 7 -12 9 -10 7 8 -1 19 -17 33 -17 15z"/>
<path d="M3113 575 c0 -8 4 -12 9 -9 5 3 6 10 3 15 -9 13 -12 11 -12 -6z"/>
<path d="M750 561 c0 -6 4 -13 10 -16 6 -3 7 1 4 9 -7 18 -14 21 -14 7z"/>
<path d="M3037 553 c-4 -3 -7 -11 -7 -17 0 -6 5 -5 12 2 6 6 9 14 7 17 -3 3
-9 2 -12 -2z"/>
<path d="M820 540 c-18 -12 -2 -12 25 0 13 6 15 9 5 9 -8 0 -22 -4 -30 -9z"/>
<path d="M2990 519 c0 -5 5 -7 10 -4 6 3 10 8 10 11 0 2 -4 4 -10 4 -5 0 -10
-5 -10 -11z"/>
<path d="M855 500 c3 -5 8 -10 11 -10 2 0 4 5 4 10 0 6 -5 10 -11 10 -5 0 -7
-4 -4 -10z"/>
<path d="M880 506 c0 -2 7 -7 16 -10 8 -3 12 -2 9 4 -6 10 -25 14 -25 6z"/>
<path d="M2915 489 c-4 -6 -5 -12 -2 -15 2 -3 7 2 10 11 7 17 1 20 -8 4z"/>
<path d="M921 476 c-9 -11 -9 -16 0 -22 7 -4 9 -3 5 4 -3 6 2 15 11 21 10 6
13 11 7 11 -6 0 -17 -6 -23 -14z"/>
<path d="M950 466 c0 -2 9 -6 20 -9 11 -3 18 -1 14 4 -5 9 -34 13 -34 5z"/>
<path d="M1055 441 c-3 -5 -2 -12 3 -15 5 -3 9 1 9 9 0 17 -3 19 -12 6z"/>
<path d="M2754 428 c-19 -23 -19 -23 2 -5 11 9 24 14 27 10 4 -3 7 -1 7 5 0
19 -15 14 -36 -10z"/>
<path d="M2850 440 c0 -5 5 -10 11 -10 5 0 7 5 4 10 -3 6 -8 10 -11 10 -2 0
-4 -4 -4 -10z"/>
<path d="M1095 410 c-4 -6 -10 -8 -14 -6 -4 3 -8 -1 -8 -9 0 -10 4 -12 12 -5
7 5 14 8 17 5 2 -3 5 2 5 10 0 18 -3 19 -12 5z"/>
<path d="M1035 400 c-3 -5 -1 -10 4 -10 6 0 11 5 11 10 0 6 -2 10 -4 10 -3 0
-8 -4 -11 -10z"/>
<path d="M2610 398 c0 -6 3 -8 7 -5 3 4 13 1 22 -6 14 -11 14 -10 2 6 -15 20
-31 22 -31 5z"/>
<path d="M2516 387 c3 -10 9 -15 12 -12 3 3 0 11 -7 18 -10 9 -11 8 -5 -6z"/>
<path d="M1160 386 c0 -2 7 -7 16 -10 8 -3 12 -2 9 4 -6 10 -25 14 -25 6z"/>
<path d="M2481 376 c-8 -10 -9 -16 -1 -21 6 -4 9 -1 8 7 -2 7 3 12 10 10 8 -1
11 2 7 8 -8 13 -10 13 -24 -4z"/>
<path d="M1229 363 c-13 -17 -13 -17 6 -3 11 8 22 16 24 17 2 2 0 3 -6 3 -6 0
-17 -8 -24 -17z"/>
<path d="M2430 350 c-9 -6 -10 -10 -3 -10 6 0 15 5 18 10 8 12 4 12 -15 0z"/>
<path d="M1335 340 c-3 -5 -1 -10 4 -10 6 0 11 5 11 10 0 6 -2 10 -4 10 -3 0
-8 -4 -11 -10z"/>
<path d="M2460 346 c0 -2 8 -10 18 -17 15 -13 16 -12 3 4 -13 16 -21 21 -21
13z"/>
<path d="M1364 324 c-18 -14 -18 -15 4 -4 12 6 22 13 22 15 0 8 -5 6 -26 -11z"/>
<path d="M2219 338 c-8 -28 -5 -35 15 -30 18 5 18 7 3 10 -9 2 -15 8 -12 13 4
5 4 9 1 9 -3 0 -6 -1 -7 -2z"/>
<path d="M1415 320 c-3 -6 1 -7 9 -4 18 7 21 14 7 14 -6 0 -13 -4 -16 -10z"/>
<path d="M2130 320 c0 -5 5 -10 11 -10 5 0 7 5 4 10 -3 6 -8 10 -11 10 -2 0
-4 -4 -4 -10z"/>
<path d="M2031 311 c-8 -5 -15 -19 -16 -30 -1 -11 2 -18 7 -15 5 3 7 11 5 17
-2 7 5 17 17 24 12 7 17 12 11 12 -5 1 -16 -3 -24 -8z"/>
<path d="M1473 295 c0 -8 4 -12 9 -9 4 3 8 9 8 15 0 5 -4 9 -8 9 -5 0 -9 -7
-9 -15z"/>
<path d="M1710 300 c0 -5 6 -9 13 -7 6 1 11 -6 11 -16 -2 -14 1 -15 12 -6 12
10 12 14 -3 25 -22 16 -33 17 -33 4z"/>
<path d="M1856 301 c3 -3 15 -6 27 -6 12 -1 29 -5 37 -9 12 -7 13 -6 3 4 -7 8
-26 14 -43 15 -16 1 -27 -1 -24 -4z"/>
<path d="M1940 290 c6 -11 13 -20 16 -20 2 0 0 9 -6 20 -6 11 -13 20 -16 20
-2 0 0 -9 6 -20z"/>
<path d="M1974 299 c-3 -6 -1 -16 5 -22 9 -9 10 -7 5 7 -6 15 -4 17 6 11 9 -5
11 -4 6 3 -9 15 -13 15 -22 1z"/>
<path d="M2113 289 c-2 -23 3 -25 10 -4 4 8 3 16 -1 19 -4 3 -9 -4 -9 -15z"/>
<path d="M1829 291 c8 -5 10 -14 6 -22 -6 -11 -5 -11 5 -2 14 12 6 33 -13 33
-8 0 -7 -3 2 -9z"/>
<path d="M2076 278 c3 -5 10 -6 15 -3 13 9 11 12 -6 12 -8 0 -12 -4 -9 -9z"/>
<path d="M1630 259 c0 -5 5 -7 10 -4 6 3 10 8 10 11 0 2 -4 4 -10 4 -5 0 -10
-5 -10 -11z"/>
</g>
</svg>
